HIERARCHY
ROOT Hips
{
	OFFSET 0.00000 0.00000 0.00000
	CHANNELS 6 Xposition Yposition Zposition Zrotation Yrotation Xrotation 
	JOINT LHipJoint
	{
		OFFSET 0 0 0
		CHANNELS 3 Zrotation Yrotation Xrotation
		JOINT LeftUpLeg
		{
			OFFSET 1.56857 -1.73443 1.15205
			CHANNELS 3 Zrotation Yrotation Xrotation
			JOINT LeftLeg
			{
				OFFSET 2.39362 -6.57643 0.00000
				CHANNELS 3 Zrotation Yrotation Xrotation
				JOINT LeftFoot
				{
					OFFSET 2.50952 -6.89485 0.00000
					CHANNELS 3 Zrotation Yrotation Xrotation
					JOINT LeftToeBase
					{
						OFFSET 0.17171 -0.47178 1.88682
						CHANNELS 3 Zrotation Yrotation Xrotation
						End Site
						{
							OFFSET 0.00000 -0.00000 0.98146
						}
					}
				}
			}
		}
	}
	JOINT RHipJoint
	{
		OFFSET 0 0 0
		CHANNELS 3 Zrotation Yrotation Xrotation
		JOINT RightUpLeg
		{
			OFFSET -1.28153 -1.73443 1.15205
			CHANNELS 3 Zrotation Yrotation Xrotation
			JOINT RightLeg
			{
				OFFSET -2.26861 -6.23296 0.00000
				CHANNELS 3 Zrotation Yrotation Xrotation
				JOINT RightFoot
				{
					OFFSET -2.54143 -6.98254 0.00000
					CHANNELS 3 Zrotation Yrotation Xrotation
					JOINT RightToeBase
					{
						OFFSET -0.23309 -0.64041 1.93119
						CHANNELS 3 Zrotation Yrotation Xrotation
						End Site
						{
							OFFSET -0.00000 -0.00000 1.02013
						}
					}
				}
			}
		}
	}
	JOINT LowerBack
	{
		OFFSET 0 0 0
		CHANNELS 3 Zrotation Yrotation Xrotation
		JOINT Spine
		{
			OFFSET -0.07096 2.10460 -0.27878
			CHANNELS 3 Zrotation Yrotation Xrotation
			JOINT Spine1
			{
				OFFSET -0.00826 2.13662 -0.08279
				CHANNELS 3 Zrotation Yrotation Xrotation
				JOINT Neck
				{
					OFFSET 0 0 0
					CHANNELS 3 Zrotation Yrotation Xrotation
					JOINT Neck1
					{
						OFFSET 0.03239 1.77799 0.24435
						CHANNELS 3 Zrotation Yrotation Xrotation
						JOINT Head
						{
							OFFSET 0.01026 1.74194 -0.49664
							CHANNELS 3 Zrotation Yrotation Xrotation
							End Site
							{
								OFFSET 0.00170 1.83057 -0.19653
							}
						}
					}
				}
				JOINT LeftShoulder
				{
					OFFSET 0 0 0
					CHANNELS 3 Zrotation Yrotation Xrotation
					JOINT LeftArm
					{
						OFFSET 3.19178 1.35907 -0.31412
						CHANNELS 3 Zrotation Yrotation Xrotation
						JOINT LeftForeArm
						{
							OFFSET 4.85247 -0.00000 -0.00000
							CHANNELS 3 Zrotation Yrotation Xrotation
							JOINT LeftHand
							{
								OFFSET 3.55584 -0.00000 0.00000
								CHANNELS 3 Zrotation Yrotation Xrotation
								JOINT LeftFingerBase
								{
									OFFSET 0 0 0
									CHANNELS 3 Zrotation Yrotation Xrotation
									JOINT LeftHandIndex1
									{
										OFFSET 0.69320 -0.00000 0.00000
										CHANNELS 3 Zrotation Yrotation Xrotation
										End Site
										{
											OFFSET 0.55888 -0.00000 0.00000
										}
									}
								}
								JOINT LThumb
								{
									OFFSET 0 0 0
									CHANNELS 3 Zrotation Yrotation Xrotation
									End Site
									{
										OFFSET 0.56741 -0.00000 0.56741
									}
								}
							}
						}
					}
				}
				JOINT RightShoulder
				{
					OFFSET 0 0 0
					CHANNELS 3 Zrotation Yrotation Xrotation
					JOINT RightArm
					{
						OFFSET -3.28999 1.24191 -0.26899
						CHANNELS 3 Zrotation Yrotation Xrotation
						JOINT RightForeArm
						{
							OFFSET -4.64462 -0.00000 0.00000
							CHANNELS 3 Zrotation Yrotation Xrotation
							JOINT RightHand
							{
								OFFSET -3.40703 -0.00000 0.00000
								CHANNELS 3 Zrotation Yrotation Xrotation
								JOINT RightFingerBase
								{
									OFFSET 0 0 0
									CHANNELS 3 Zrotation Yrotation Xrotation
									JOINT RightHandIndex1
									{
										OFFSET -0.61958 -0.00000 0.00000
										CHANNELS 3 Zrotation Yrotation Xrotation
										End Site
										{
											OFFSET -0.49952 -0.00000 0.00000
										}
									}
								}
								JOINT RThumb
								{
									OFFSET 0 0 0
									CHANNELS 3 Zrotation Yrotation Xrotation
									End Site
									{
										OFFSET -0.50715 -0.00000 0.50715
									}
								}
							}
						}
					}
				}
			}
		}
	}
}
MOTION
Frames: 5
Frame Time: .0083333
-11.3837 16.0492 4.2555 184.7950 70.9631 -157.4450 0.0000 0.0000 0.0000 9.8322 4.4364 -49.4301 14.5805 19.2807 73.9697 39.3827 2.8982 165.8636 3.1706 -10.9662 -32.1658 0.0000 0.0000 0.0000 41.8591 2.9402 -10.3302 -3.5888 -11.5921 34.3038 -1.2724 9.0474 -20.2327 -2.3825 -9.6210 27.7580 1.0336 -2.1122 27.7887 -8.6274 -2.0622 7.8377 -9.7574 -0.5171 -6.9358 4.0059 -2.6224 -22.7141 3.3830 -5.7057 19.1247 -0.3008 -1.8803 9.8289 -0.0000 0.0000 0.0000 -71.5814 -20.4901 86.1993 74.0495 -59.0165 -46.2321 -0.0000 -0.0000 19.3619 24.5571 -24.8093 -10.8535 -7.1250 0.0000 -0.0000 -3.0091 3.0708 2.8475 -0.0000 0.0000 0.0000 -62.5442 46.5757 -68.5466 -38.3529 47.0632 -17.2235 0.0000 -0.0000 -17.5583 -19.0948 -19.3630 6.5476 7.1250 -0.0000 -0.0000 9.1597 -50.1569 -1.1730
-11.1662 16.1841 4.1999 187.3540 72.4856 -154.1620 0.0000 0.0000 0.0000 8.4677 3.9754 -53.1652 14.9206 19.3698 74.9973 39.3805 4.5182 165.9769 3.4615 -11.4071 -33.6656 0.0000 0.0000 0.0000 41.5910 2.4685 -8.5271 -2.9449 -10.6053 30.9600 -0.8140 10.2910 -16.5870 -2.2210 -9.3120 26.7763 1.3648 -1.0750 26.9315 -8.4007 -0.6613 7.7188 -10.1261 0.1441 -6.3960 4.1669 -3.0676 -22.7922 3.3670 -6.3771 19.1541 -0.4325 -2.1778 9.8457 -0.0000 0.0000 0.0000 -70.2179 -20.1758 86.0139 75.1569 -59.1509 -47.1821 -0.0000 -0.0000 19.3169 26.0089 -25.5035 -11.8644 -7.1250 0.0000 -0.0000 -2.2206 2.0384 2.1418 -0.0000 0.0000 0.0000 -64.8628 52.4913 -71.1055 -36.6875 45.9802 -16.0150 0.0000 -0.0000 -15.7243 -19.8282 -19.6309 6.9071 7.1250 -0.0000 -0.0000 8.5313 -50.5510 -1.1745
-10.9451 16.3283 4.1411 190.1400 73.9305 -150.6290 0.0000 0.0000 0.0000 7.0437 3.3230 -56.6175 15.3962 19.4841 76.4273 39.4600 6.4499 166.8251 3.0027 -10.6994 -31.2727 0.0000 0.0000 0.0000 41.0288 2.1350 -6.8102 -2.3616 -9.5819 27.6331 -0.2864 11.6956 -11.7956 -2.8651 -10.4734 30.5239 1.5711 -0.1418 26.2699 -8.0886 0.5604 7.5405 -10.2384 0.7137 -6.0434 3.8661 -3.5189 -22.8345 3.4400 -6.9228 19.1761 -0.4409 -2.4434 9.8710 0.0000 -0.0000 0.0000 -69.0730 -19.6507 85.3461 75.6380 -59.2061 -47.5953 -0.0000 -0.0000 19.3306 27.9852 -25.9126 -13.0731 -7.1250 0.0000 -0.0000 -1.0929 1.1656 1.0706 0.0000 -0.0000 0.0000 -68.5631 58.6585 -75.1990 -34.8663 44.7165 -14.7192 0.0000 -0.0000 -13.6027 -20.3658 -20.6592 7.4615 7.1250 -0.0000 -0.0000 8.3372 -51.7013 -1.3839
-10.7100 16.4728 4.0776 194.0220 75.6562 -146.1010 0.0000 0.0000 0.0000 5.5648 3.1020 -59.5301 16.0724 19.6261 78.4474 39.5294 7.9061 167.3959 2.7424 -10.2659 -29.8423 0.0000 0.0000 0.0000 40.2450 1.3881 -5.3025 -1.9358 -8.7310 24.9575 0.1533 12.8181 -6.8341 -3.0919 -10.8423 31.7500 1.6472 0.8619 25.7253 -7.7843 1.8254 7.2891 -10.2816 1.2979 -5.8250 3.3862 -3.7515 -23.1079 3.4288 -7.1120 19.4226 -0.4053 -2.5549 10.0222 0.0000 -0.0000 0.0000 -68.0289 -18.8735 84.3024 75.6365 -59.2059 -47.5940 -0.0000 -0.0000 19.1016 30.3204 -26.3776 -14.5652 -7.1250 0.0000 -0.0000 0.2217 0.1026 -0.2213 0.0000 -0.0000 0.0000 -73.7594 65.4827 -82.3548 -32.8038 43.1787 -13.2876 0.0000 -0.0000 -10.8771 -20.5695 -21.1636 7.7157 7.1250 -0.0000 -0.0000 8.3056 -52.2572 -1.4922
-10.4634 16.6130 4.0197 201.4490 77.0248 -138.1790 0.0000 0.0000 0.0000 4.8566 3.3998 -62.0750 17.1761 19.8077 81.7180 42.9160 30.4549 -179.6661 2.7847 -10.3380 -30.0784 0.0000 0.0000 0.0000 40.0632 0.5575 -3.9938 -1.6235 -8.0335 22.8159 0.4736 13.5257 -1.5115 -3.3408 -11.2274 33.0506 1.5107 2.2222 24.8471 -6.7859 3.5559 7.2816 -9.4501 2.1237 -5.1554 2.4357 -4.3186 -22.6298 3.4322 -7.5223 18.7534 -0.2970 -2.8578 9.7299 0.0000 0.0000 0.0000 -67.8977 -18.5767 83.3810 75.0765 -59.1415 -47.1131 -0.0000 -0.0000 18.4999 31.8686 -27.2519 -15.8902 -7.1250 0.0000 -0.0000 0.9756 -1.2531 -0.9968 0.0000 0.0000 0.0000 -75.1928 68.3414 -82.2956 -32.1350 42.6545 -12.8322 0.0000 -0.0000 -14.0608 -20.7587 -22.0886 8.1120 7.1250 -0.0000 -0.0000 8.4439 -53.2445 -1.7221
